<mxfile host="app.diagrams.net" modified="2024-01-17T09:01:38.426Z" agent="Mozilla/5.0 (Windows NT 10.0; Win64; x64) AppleWebKit/537.36 (KHTML, like Gecko) Chrome/120.0.0.0 Safari/537.36 Edg/120.0.0.0" etag="6awnENki6BYB1tCdCkAb" version="22.1.20" type="device">
  <diagram name="第 1 页" id="jmz5JRFogpYoxeglr3Nw">
    <mxGraphModel dx="2240" dy="785" grid="1" gridSize="10" guides="1" tooltips="1" connect="1" arrows="1" fold="1" page="1" pageScale="1" pageWidth="827" pageHeight="1169" math="0" shadow="0">
      <root>
        <mxCell id="0" />
        <mxCell id="1" parent="0" />
        <mxCell id="hU3DmQA9AgJyeoPtGKpZ-1" value="" style="sketch=0;aspect=fixed;pointerEvents=1;shadow=0;dashed=0;html=1;strokeColor=none;labelPosition=center;verticalLabelPosition=bottom;verticalAlign=top;align=center;fillColor=#00188D;shape=mxgraph.azure.computer" vertex="1" parent="1">
          <mxGeometry x="30" y="220" width="99.99" height="90" as="geometry" />
        </mxCell>
        <mxCell id="hU3DmQA9AgJyeoPtGKpZ-2" value="" style="sketch=0;html=1;aspect=fixed;strokeColor=none;shadow=0;fillColor=#3B8DF1;verticalAlign=top;labelPosition=center;verticalLabelPosition=bottom;shape=mxgraph.gcp2.swap" vertex="1" parent="1">
          <mxGeometry x="320" y="225" width="156.86" height="80" as="geometry" />
        </mxCell>
        <mxCell id="hU3DmQA9AgJyeoPtGKpZ-3" value="&lt;font style=&quot;font-size: 27px;&quot;&gt;交换机&lt;/font&gt;" style="text;html=1;align=center;verticalAlign=middle;resizable=0;points=[];autosize=1;strokeColor=none;fillColor=none;" vertex="1" parent="1">
          <mxGeometry x="348.43" y="330" width="100" height="50" as="geometry" />
        </mxCell>
        <mxCell id="hU3DmQA9AgJyeoPtGKpZ-7" value="" style="image;aspect=fixed;perimeter=ellipsePerimeter;html=1;align=center;shadow=0;dashed=0;spacingTop=3;image=img/lib/active_directory/windows_server.svg;" vertex="1" parent="1">
          <mxGeometry x="580" y="140" width="106.6" height="130" as="geometry" />
        </mxCell>
        <mxCell id="hU3DmQA9AgJyeoPtGKpZ-11" style="edgeStyle=orthogonalEdgeStyle;rounded=0;orthogonalLoop=1;jettySize=auto;html=1;" edge="1" parent="1" source="hU3DmQA9AgJyeoPtGKpZ-8">
          <mxGeometry relative="1" as="geometry">
            <mxPoint x="470" y="270" as="targetPoint" />
            <Array as="points">
              <mxPoint x="530" y="405" />
              <mxPoint x="530" y="270" />
            </Array>
          </mxGeometry>
        </mxCell>
        <mxCell id="hU3DmQA9AgJyeoPtGKpZ-8" value="" style="image;aspect=fixed;perimeter=ellipsePerimeter;html=1;align=center;shadow=0;dashed=0;spacingTop=3;image=img/lib/active_directory/windows_server.svg;" vertex="1" parent="1">
          <mxGeometry x="590" y="340" width="106.6" height="130" as="geometry" />
        </mxCell>
        <mxCell id="hU3DmQA9AgJyeoPtGKpZ-9" style="edgeStyle=orthogonalEdgeStyle;rounded=0;orthogonalLoop=1;jettySize=auto;html=1;entryX=0.958;entryY=0.588;entryDx=0;entryDy=0;entryPerimeter=0;" edge="1" parent="1" source="hU3DmQA9AgJyeoPtGKpZ-7" target="hU3DmQA9AgJyeoPtGKpZ-2">
          <mxGeometry relative="1" as="geometry" />
        </mxCell>
        <mxCell id="hU3DmQA9AgJyeoPtGKpZ-13" style="edgeStyle=orthogonalEdgeStyle;rounded=0;orthogonalLoop=1;jettySize=auto;html=1;entryX=0.191;entryY=0.5;entryDx=0;entryDy=0;entryPerimeter=0;" edge="1" parent="1" source="hU3DmQA9AgJyeoPtGKpZ-1" target="hU3DmQA9AgJyeoPtGKpZ-2">
          <mxGeometry relative="1" as="geometry" />
        </mxCell>
        <mxCell id="hU3DmQA9AgJyeoPtGKpZ-14" value="&lt;font style=&quot;font-size: 20px;&quot;&gt;链路宽带：100Mb/s&lt;br&gt;服务器1：20Mb/s&lt;br&gt;服务器2:10Mb/s&lt;/font&gt;" style="text;html=1;align=center;verticalAlign=middle;resizable=0;points=[];autosize=1;strokeColor=none;fillColor=none;" vertex="1" parent="1">
          <mxGeometry x="148.43" y="180" width="200" height="90" as="geometry" />
        </mxCell>
        <mxCell id="hU3DmQA9AgJyeoPtGKpZ-15" value="&lt;font color=&quot;#ff3333&quot; style=&quot;font-size: 27px;&quot;&gt;吞吐量：30Mb/s&lt;/font&gt;" style="text;html=1;align=center;verticalAlign=middle;resizable=0;points=[];autosize=1;strokeColor=none;fillColor=none;" vertex="1" parent="1">
          <mxGeometry x="-30.01" y="310" width="220" height="50" as="geometry" />
        </mxCell>
        <mxCell id="hU3DmQA9AgJyeoPtGKpZ-16" value="" style="verticalLabelPosition=bottom;sketch=0;aspect=fixed;html=1;verticalAlign=top;strokeColor=none;align=center;outlineConnect=0;shape=mxgraph.citrix.router;" vertex="1" parent="1">
          <mxGeometry x="320" y="640" width="195.89" height="130" as="geometry" />
        </mxCell>
      </root>
    </mxGraphModel>
  </diagram>
</mxfile>
